<mxfile host="app.diagrams.net" modified="2023-03-13T11:53:24.349Z" agent="5.0 (Windows NT 10.0; Win64; x64) AppleWebKit/537.36 (KHTML, like Gecko) Chrome/110.0.0.0 Safari/537.36 Edg/110.0.1587.63" etag="Xr7bcxvGK3JCgK2M4EKG" version="21.0.6" type="github">
  <diagram name="第 1 页" id="9IShKYj2As8zD5tRc6h8">
    <mxGraphModel dx="1366" dy="836" grid="1" gridSize="10" guides="1" tooltips="1" connect="1" arrows="1" fold="1" page="1" pageScale="1" pageWidth="827" pageHeight="1169" math="0" shadow="0">
      <root>
        <mxCell id="0" />
        <mxCell id="1" parent="0" />
        <mxCell id="e2t_mUOgUBOyiVM4Sfsu-24" value="" style="rounded=1;whiteSpace=wrap;html=1;" vertex="1" parent="1">
          <mxGeometry x="20" y="140" width="980" height="400" as="geometry" />
        </mxCell>
        <mxCell id="e2t_mUOgUBOyiVM4Sfsu-15" value="" style="group" vertex="1" connectable="0" parent="1">
          <mxGeometry x="40" y="180" width="210" height="310" as="geometry" />
        </mxCell>
        <mxCell id="e2t_mUOgUBOyiVM4Sfsu-5" value="" style="rounded=0;whiteSpace=wrap;html=1;shadow=0;fillColor=#ffe6cc;strokeColor=#d79b00;glass=0;sketch=1;curveFitting=1;jiggle=2;" vertex="1" parent="e2t_mUOgUBOyiVM4Sfsu-15">
          <mxGeometry width="210" height="310" as="geometry" />
        </mxCell>
        <mxCell id="e2t_mUOgUBOyiVM4Sfsu-1" value="&lt;b&gt;&lt;font style=&quot;font-size: 15px;&quot;&gt;脏读&lt;/font&gt;&lt;/b&gt;" style="rounded=0;whiteSpace=wrap;html=1;fillColor=#fff2cc;strokeColor=#d6b656;" vertex="1" parent="e2t_mUOgUBOyiVM4Sfsu-15">
          <mxGeometry x="55" y="20" width="100" height="50" as="geometry" />
        </mxCell>
        <mxCell id="e2t_mUOgUBOyiVM4Sfsu-2" value="&lt;b&gt;&lt;font style=&quot;font-size: 15px;&quot;&gt;不可重复读&lt;/font&gt;&lt;/b&gt;" style="rounded=0;whiteSpace=wrap;html=1;fillColor=#fff2cc;strokeColor=#d6b656;" vertex="1" parent="e2t_mUOgUBOyiVM4Sfsu-15">
          <mxGeometry x="55" y="110" width="100" height="50" as="geometry" />
        </mxCell>
        <mxCell id="e2t_mUOgUBOyiVM4Sfsu-3" value="&lt;b&gt;&lt;font style=&quot;font-size: 15px;&quot;&gt;幻读&lt;/font&gt;&lt;/b&gt;" style="rounded=0;whiteSpace=wrap;html=1;fillColor=#fff2cc;strokeColor=#d6b656;" vertex="1" parent="e2t_mUOgUBOyiVM4Sfsu-15">
          <mxGeometry x="55" y="200" width="100" height="50" as="geometry" />
        </mxCell>
        <mxCell id="e2t_mUOgUBOyiVM4Sfsu-4" value="&lt;font style=&quot;font-size: 15px;&quot;&gt;&lt;b&gt;读未提交&lt;/b&gt;&lt;/font&gt;" style="text;html=1;strokeColor=none;fillColor=none;align=center;verticalAlign=middle;whiteSpace=wrap;rounded=0;" vertex="1" parent="e2t_mUOgUBOyiVM4Sfsu-15">
          <mxGeometry x="65" y="270" width="80" height="30" as="geometry" />
        </mxCell>
        <mxCell id="e2t_mUOgUBOyiVM4Sfsu-16" value="" style="group" vertex="1" connectable="0" parent="1">
          <mxGeometry x="280" y="180" width="210" height="310" as="geometry" />
        </mxCell>
        <mxCell id="e2t_mUOgUBOyiVM4Sfsu-6" value="" style="rounded=0;whiteSpace=wrap;html=1;shadow=0;fillColor=#ffe6cc;strokeColor=#d79b00;glass=0;sketch=1;curveFitting=1;jiggle=2;" vertex="1" parent="e2t_mUOgUBOyiVM4Sfsu-16">
          <mxGeometry width="210" height="310" as="geometry" />
        </mxCell>
        <mxCell id="e2t_mUOgUBOyiVM4Sfsu-7" value="&lt;b&gt;&lt;font style=&quot;font-size: 15px;&quot;&gt;不可重复读&lt;/font&gt;&lt;/b&gt;" style="rounded=0;whiteSpace=wrap;html=1;fillColor=#fff2cc;strokeColor=#d6b656;" vertex="1" parent="e2t_mUOgUBOyiVM4Sfsu-16">
          <mxGeometry x="55" y="110" width="100" height="50" as="geometry" />
        </mxCell>
        <mxCell id="e2t_mUOgUBOyiVM4Sfsu-8" value="&lt;b&gt;&lt;font style=&quot;font-size: 15px;&quot;&gt;幻读&lt;/font&gt;&lt;/b&gt;" style="rounded=0;whiteSpace=wrap;html=1;fillColor=#fff2cc;strokeColor=#d6b656;" vertex="1" parent="e2t_mUOgUBOyiVM4Sfsu-16">
          <mxGeometry x="55" y="200" width="100" height="50" as="geometry" />
        </mxCell>
        <mxCell id="e2t_mUOgUBOyiVM4Sfsu-9" value="&lt;font style=&quot;font-size: 15px;&quot;&gt;&lt;b&gt;读已提交&lt;/b&gt;&lt;/font&gt;" style="text;html=1;strokeColor=none;fillColor=none;align=center;verticalAlign=middle;whiteSpace=wrap;rounded=0;" vertex="1" parent="e2t_mUOgUBOyiVM4Sfsu-16">
          <mxGeometry x="65" y="270" width="80" height="30" as="geometry" />
        </mxCell>
        <mxCell id="e2t_mUOgUBOyiVM4Sfsu-19" value="" style="group" vertex="1" connectable="0" parent="1">
          <mxGeometry x="520" y="180" width="210" height="310" as="geometry" />
        </mxCell>
        <mxCell id="e2t_mUOgUBOyiVM4Sfsu-11" value="" style="rounded=0;whiteSpace=wrap;html=1;shadow=0;fillColor=#ffe6cc;strokeColor=#d79b00;glass=0;sketch=1;curveFitting=1;jiggle=2;" vertex="1" parent="e2t_mUOgUBOyiVM4Sfsu-19">
          <mxGeometry width="210" height="310" as="geometry" />
        </mxCell>
        <mxCell id="e2t_mUOgUBOyiVM4Sfsu-13" value="&lt;b&gt;&lt;font style=&quot;font-size: 15px;&quot;&gt;幻读&lt;/font&gt;&lt;/b&gt;" style="rounded=0;whiteSpace=wrap;html=1;fillColor=#fff2cc;strokeColor=#d6b656;" vertex="1" parent="e2t_mUOgUBOyiVM4Sfsu-19">
          <mxGeometry x="55" y="200" width="100" height="50" as="geometry" />
        </mxCell>
        <mxCell id="e2t_mUOgUBOyiVM4Sfsu-14" value="&lt;font style=&quot;font-size: 15px;&quot;&gt;&lt;b&gt;可重复读&lt;/b&gt;&lt;/font&gt;" style="text;html=1;strokeColor=none;fillColor=none;align=center;verticalAlign=middle;whiteSpace=wrap;rounded=0;" vertex="1" parent="e2t_mUOgUBOyiVM4Sfsu-19">
          <mxGeometry x="65" y="270" width="80" height="30" as="geometry" />
        </mxCell>
        <mxCell id="e2t_mUOgUBOyiVM4Sfsu-20" value="" style="group" vertex="1" connectable="0" parent="1">
          <mxGeometry x="770" y="180" width="210" height="310" as="geometry" />
        </mxCell>
        <mxCell id="e2t_mUOgUBOyiVM4Sfsu-21" value="" style="rounded=0;whiteSpace=wrap;html=1;shadow=0;fillColor=#ffe6cc;strokeColor=#d79b00;glass=0;sketch=1;curveFitting=1;jiggle=2;" vertex="1" parent="e2t_mUOgUBOyiVM4Sfsu-20">
          <mxGeometry width="210" height="310" as="geometry" />
        </mxCell>
        <mxCell id="e2t_mUOgUBOyiVM4Sfsu-23" value="&lt;font style=&quot;font-size: 15px;&quot;&gt;&lt;b&gt;串行化&lt;/b&gt;&lt;/font&gt;" style="text;html=1;strokeColor=none;fillColor=none;align=center;verticalAlign=middle;whiteSpace=wrap;rounded=0;" vertex="1" parent="e2t_mUOgUBOyiVM4Sfsu-20">
          <mxGeometry x="65" y="270" width="80" height="30" as="geometry" />
        </mxCell>
      </root>
    </mxGraphModel>
  </diagram>
</mxfile>
